<svg xmlns="http://www.w3.org/2000/svg" width="1440" height="900" viewBox="0 0 1440 900">
  <rect width="1440" height="900" fill="#F5F7F9"/>
  <rect width="1440" height="64" fill="#FFFFFF"/>
  <path d="M0 64h1440" stroke="#DCDEE2"/>
  <rect x="0" y="64" width="203" height="836" fill="#FFFFFF"/>
  <path d="M203 64v836" stroke="#DCDEE2"/>
  <circle cx="34" cy="32" r="15" fill="#129BFF"/>
  <path d="M27 32h14M34 25v14" stroke="#fff" stroke-width="3" stroke-linecap="round"/>
  <text x="60" y="40" fill="#30384B" font-family="Arial, sans-serif" font-size="22" font-weight="700">安保管理平台</text>
  <text x="1280" y="38" fill="#515A6E" font-family="Arial, sans-serif" font-size="14">装备管理员</text>
  <g font-family="Arial, sans-serif" font-size="14" fill="#515A6E">
    <text x="28" y="112">工作台</text><text x="28" y="162">装备管理</text>
    <rect x="0" y="181" width="203" height="49" fill="#F0FAFF"/>
    <rect x="201" y="181" width="2" height="49" fill="#129BFF"/>
    <text x="52" y="211" fill="#129BFF">装备档案</text>
    <text x="52" y="260">库存管理</text><text x="52" y="309">库存盘点</text><text x="52" y="358">出入库管理</text>
  </g>
  <rect x="203" y="64" width="1237" height="48" fill="#F5F7F9"/>
  <rect x="223" y="80" width="132" height="32" fill="#FFFFFF" stroke="#DCDEE2"/>
  <text x="244" y="101" fill="#2D8CF0" font-family="Arial, sans-serif" font-size="14">装备档案管理</text>
  <rect x="223" y="132" width="1197" height="748" rx="4" fill="#FFFFFF"/>
  <text x="247" y="178" fill="#30384B" font-family="Arial, sans-serif" font-size="20" font-weight="700">装备档案</text>
  <rect x="247" y="201" width="1149" height="118" rx="6" fill="#F5F7FB"/>
  <g fill="#FFFFFF" stroke="#DCDEE2">
    <rect x="267" y="221" width="330" height="34" rx="4"/><rect x="613" y="221" width="330" height="34" rx="4"/><rect x="959" y="221" width="330" height="34" rx="4"/>
  </g>
  <g font-family="Arial, sans-serif" font-size="13" fill="#515A6E">
    <text x="279" y="243">装备分类</text><text x="625" y="243">装备名称 / 编码</text><text x="971" y="243">使用状态</text>
  </g>
  <rect x="1219" y="271" width="70" height="32" rx="4" fill="#129BFF"/>
  <text x="1241" y="292" fill="#FFFFFF" font-family="Arial, sans-serif" font-size="14">查询</text>
  <rect x="1301" y="271" width="70" height="32" rx="4" fill="#FFFFFF" stroke="#DCDEE2"/>
  <text x="1323" y="292" fill="#515A6E" font-family="Arial, sans-serif" font-size="14">重置</text>
  <rect x="247" y="343" width="82" height="32" rx="4" fill="#129BFF"/>
  <text x="267" y="364" fill="#FFFFFF" font-family="Arial, sans-serif" font-size="14">新增装备</text>
  <rect x="247" y="395" width="1149" height="38" fill="#F4F5F7"/>
  <g font-family="Arial, sans-serif" font-size="13" font-weight="700" fill="#4B4949">
    <text x="275" y="420">装备编码</text><text x="435" y="420">装备名称</text><text x="640" y="420">分类</text><text x="815" y="420">状态</text><text x="990" y="420">更新时间</text><text x="1275" y="420">操作</text>
  </g>
  <g font-family="Arial, sans-serif" font-size="13" fill="#515A6E">
    <rect x="247" y="481" width="1149" height="48" fill="#F4F5F7"/>
    <text x="275" y="466">EQ-2026-001</text><text x="435" y="466">防暴头盔</text><text x="640" y="466">防护装备</text><circle cx="824" cy="462" r="4" fill="#52C41A"/><text x="836" y="466">启用</text><text x="990" y="466">2026-07-03 10:24</text><text x="1275" y="466" fill="#2D8CF0">查看  编辑</text>
    <text x="275" y="512">EQ-2026-002</text><text x="435" y="512">强光手电</text><text x="640" y="512">巡逻装备</text><circle cx="824" cy="508" r="4" fill="#52C41A"/><text x="836" y="512">启用</text><text x="990" y="512">2026-07-03 09:18</text><text x="1275" y="512" fill="#2D8CF0">查看  编辑</text>
    <text x="275" y="560">EQ-2026-003</text><text x="435" y="560">执勤记录仪</text><text x="640" y="560">电子设备</text><circle cx="824" cy="556" r="4" fill="#F5A623"/><text x="836" y="560">检修中</text><text x="990" y="560">2026-07-02 16:40</text><text x="1275" y="560" fill="#2D8CF0">查看  编辑</text>
  </g>
  <text x="1265" y="616" fill="#808695" font-family="Arial, sans-serif" font-size="13">共 128 条</text>
</svg>

